
<svg fill="#D3D3D3" height="800px" width="800px" version="1.1" id="Layer_1" xmlns="http://www.w3.org/2000/svg" xmlns:xlink="http://www.w3.org/1999/xlink" 
	 viewBox="0 0 512 512" xml:space="preserve">
<g>
	<g>
		<path d="M432.016,0H79.984C62.352,0,48,14.352,48,31.984v448.032C48,497.648,62.352,512,79.984,512h352.032
			C449.648,512,464,497.648,464,480.016V31.984C464,14.352,449.648,0,432.016,0z M80,480.016L79.984,32L432,31.984L432.032,480
			L80,480.016z"/>
	</g>
</g>
<g>
	<g>
		<path d="M256,0c-8.832,0-16,7.168-16,16v480c0,8.832,7.168,16,16,16c8.832,0,16-7.168,16-16V16C272,7.168,264.832,0,256,0z"/>
	</g>
</g>
<g>
	<g>
		<path d="M208.672,221.28c-9.408,0-17.056,7.792-17.056,17.36c0,9.568,7.648,17.36,17.056,17.36c9.392,0,17.056-7.792,17.056-17.36
			S218.08,221.28,208.672,221.28z"/>
	</g>
</g>
<g>
	<g>
		<path d="M304,221.28c-9.408,0-17.056,7.792-17.056,17.36c0,9.568,7.648,17.36,17.056,17.36c9.408,0,17.056-7.792,17.056-17.36
			S313.408,221.28,304,221.28z"/>
	</g>
</g>
</svg>